#N canvas 0 23 1280 332 10;
#X obj 41 284 dac~;
#X obj 73 107 osc~ 300, f 9;
#X obj 40 216 *~ 0;
#X msg 141 185 0.5;
#X msg 99 165 0;
#X connect 1 0 2 0;
#X connect 2 0 0 0;
#X connect 2 0 0 1;
#X connect 3 0 2 1;
#X connect 4 0 2 1;
