#N canvas 640 23 640 686 10;
#X obj 161 421 dac~;
#X obj 117 254 osc~;
#X obj 222 256 osc~;
#X floatatom 151 90 5 0 0 0 - - -, f 5;
#X obj 210 173 * 400;
#X obj 111 213 *~ 0.5;
#X obj 220 216 *~ 0.5;
#X obj 110 173 * 591;
#X connect 1 0 0 0;
#X connect 1 0 0 1;
#X connect 2 0 0 1;
#X connect 2 0 0 0;
#X connect 3 0 4 0;
#X connect 3 0 7 0;
#X connect 4 0 6 0;
#X connect 5 0 1 0;
#X connect 6 0 2 0;
#X connect 7 0 5 0;
