#N canvas 0 22 1232 687 10;
#X floatatom 273 12 5 0 0 0 - - -, f 5;
#X obj 319 132 + 1;
#X obj 247 105 float;
#X obj 247 -29 tgl 15 0 empty empty empty 17 7 0 10 -262144 -1 -1 0
1;
#X obj 247 198 hradio 16 1 0 16 empty empty empty 0 -8 0 10 -262144
-1 -1 13;
#X obj 247 157 mod 16;
#X obj 246 424 f;
#X obj 299 424 f;
#X obj 325 424 f;
#X obj 351 424 f;
#X obj 378 425 f;
#X obj 405 426 f;
#X obj 431 426 f;
#X obj 458 426 f;
#X obj 484 426 f;
#X obj 510 426 f;
#X obj 536 426 f;
#X obj 561 426 f;
#X obj 587 426 f;
#X obj 640 426 f;
#X obj 613 426 f;
#X obj 272 424 f;
#X obj 651 267 vsl 15 128 0 127 0 0 empty empty empty 0 -9 0 10 -262144
-1 -1 0 1;
#X obj 285 266 vsl 15 128 0 127 0 0 empty empty empty 0 -9 0 10 -262144
-1 -1 500 1;
#X obj 311 266 vsl 15 128 0 127 0 0 empty empty empty 0 -9 0 10 -262144
-1 -1 800 1;
#X obj 337 265 vsl 15 128 0 127 0 0 empty empty empty 0 -9 0 10 -262144
-1 -1 0 1;
#X obj 363 266 vsl 15 128 0 127 0 0 empty empty empty 0 -9 0 10 -262144
-1 -1 0 1;
#X obj 391 265 vsl 15 128 0 127 0 0 empty empty empty 0 -9 0 10 -262144
-1 -1 0 1;
#X obj 416 266 vsl 15 128 0 127 0 0 empty empty empty 0 -9 0 10 -262144
-1 -1 0 1;
#X obj 443 266 vsl 15 128 0 127 0 0 empty empty empty 0 -9 0 10 -262144
-1 -1 0 1;
#X obj 471 268 vsl 15 128 0 127 0 0 empty empty empty 0 -9 0 10 -262144
-1 -1 0 1;
#X obj 496 267 vsl 15 128 0 127 0 0 empty empty empty 0 -9 0 10 -262144
-1 -1 0 1;
#X obj 522 267 vsl 15 128 0 127 0 0 empty empty empty 0 -9 0 10 -262144
-1 -1 0 1;
#X obj 547 267 vsl 15 128 0 127 0 0 empty empty empty 0 -9 0 10 -262144
-1 -1 0 1;
#X obj 572 268 vsl 15 128 0 127 0 0 empty empty empty 0 -9 0 10 -262144
-1 -1 0 1;
#X obj 600 267 vsl 15 128 0 127 0 0 empty empty empty 0 -9 0 10 -262144
-1 -1 0 1;
#X obj 626 267 vsl 15 128 0 127 0 0 empty empty empty 0 -9 0 10 -262144
-1 -1 0 1;
#X obj 263 266 vsl 15 128 0 127 0 0 empty empty empty 0 -9 0 10 -262144
-1 -1 600 1;
#X obj 248 235 select 0 1 2 3 4 5 6 7 8 9 10 11 12 13 14 15;
#X obj 247 459 mtof;
#X obj 247 498 phasor~;
#X obj 273 521 * 1.5;
#X obj 248 545 bp~ 220 5;
#X obj 251 863 dac~;
#X obj 247 41 metro 300;
#X msg 251 583 1 1000;
#X msg 270 609 0 1000;
#X msg 329 658 10 1000 \, 0 0 1000 \, 1 1000 3000;
#X msg 294 637 0;
#X msg 329 682 stop;
#X obj 251 733 vline~;
#X obj 251 825 snapshot~;
#X obj 111 868 nothing;
#X obj 268 794 metro 100;
#X obj 268 762 tgl 15 0 empty empty empty 17 7 0 10 -262144 -1 -1 1
1;
#X connect 0 0 44 1;
#X connect 1 0 2 1;
#X connect 2 0 1 0;
#X connect 2 0 5 0;
#X connect 3 0 44 0;
#X connect 4 0 38 0;
#X connect 5 0 4 0;
#X connect 6 0 39 0;
#X connect 7 0 39 0;
#X connect 8 0 39 0;
#X connect 9 0 39 0;
#X connect 10 0 39 0;
#X connect 11 0 39 0;
#X connect 12 0 39 0;
#X connect 13 0 39 0;
#X connect 14 0 39 0;
#X connect 15 0 39 0;
#X connect 16 0 39 0;
#X connect 17 0 39 0;
#X connect 18 0 39 0;
#X connect 19 0 39 0;
#X connect 20 0 39 0;
#X connect 21 0 39 0;
#X connect 22 0 19 1;
#X connect 23 0 21 1;
#X connect 24 0 7 1;
#X connect 25 0 8 1;
#X connect 26 0 9 1;
#X connect 27 0 10 1;
#X connect 28 0 11 1;
#X connect 29 0 12 1;
#X connect 30 0 13 1;
#X connect 31 0 14 1;
#X connect 32 0 15 1;
#X connect 33 0 16 1;
#X connect 34 0 17 1;
#X connect 35 0 18 1;
#X connect 36 0 20 1;
#X connect 37 0 6 1;
#X connect 38 0 6 0;
#X connect 38 1 21 0;
#X connect 38 2 7 0;
#X connect 38 3 8 0;
#X connect 38 4 9 0;
#X connect 38 5 10 0;
#X connect 38 6 11 0;
#X connect 38 7 12 0;
#X connect 38 8 13 0;
#X connect 38 9 14 0;
#X connect 38 10 15 0;
#X connect 38 11 16 0;
#X connect 38 12 17 0;
#X connect 38 13 18 0;
#X connect 38 14 20 0;
#X connect 38 15 19 0;
#X connect 39 0 40 0;
#X connect 39 0 41 0;
#X connect 40 0 42 0;
#X connect 41 0 42 1;
#X connect 44 0 2 0;
#X connect 45 0 50 0;
#X connect 46 0 50 0;
#X connect 47 0 50 0;
#X connect 48 0 50 0;
#X connect 49 0 50 0;
#X connect 50 0 51 0;
#X connect 51 0 43 0;
#X connect 53 0 51 0;
#X connect 54 0 53 0;
