#N canvas 640 23 640 686 10;
#X obj 173 337 dac~;
#X floatatom 173 147 5 0 0 0 - - -, f 5;
#X obj 173 301 *~ 0;
#X msg 209 241 0;
#X msg 256 242 1;
#X obj 173 179 osc~ 440;
#X connect 1 0 5 0;
#X connect 2 0 0 0;
#X connect 2 0 0 1;
#X connect 3 0 2 1;
#X connect 4 0 2 1;
#X connect 5 0 2 0;
